<svg xmlns="http://www.w3.org/2000/svg" width="17" height="17" viewBox="0 0 17 17" fill="none">
  <path d="M7.85742 3.44043H3.19076C2.83713 3.44043 2.49799 3.58091 2.24795 3.83095C1.9979 4.081 1.85742 4.42014 1.85742 4.77376V14.1071C1.85742 14.4607 1.9979 14.7999 2.24795 15.0499C2.49799 15.3 2.83713 15.4404 3.19076 15.4404H12.5241C12.8777 15.4404 13.2168 15.3 13.4669 15.0499C13.7169 14.7999 13.8574 14.4607 13.8574 14.1071V9.44043" stroke="black" stroke-linecap="round" stroke-linejoin="round"/>
  <path d="M12.8574 2.44058C13.1226 2.17536 13.4823 2.02637 13.8574 2.02637C14.2325 2.02637 14.5922 2.17536 14.8574 2.44058C15.1226 2.7058 15.2716 3.06551 15.2716 3.44058C15.2716 3.81565 15.1226 4.17536 14.8574 4.44058L8.52409 10.7739L5.85742 11.4406L6.52409 8.77391L12.8574 2.44058Z" stroke="black" stroke-linecap="round" stroke-linejoin="round"/>
</svg>