<svg xmlns="http://www.w3.org/2000/svg" width="25" height="25" viewBox="0 0 25 25" fill="none">
  <g clip-path="url(#clip0_7149_27616)">
    <path fill-rule="evenodd" clip-rule="evenodd" d="M3.5 5C3.5 4.60218 3.65804 4.22064 3.93934 3.93934C4.22064 3.65804 4.60218 3.5 5 3.5H20C20.3978 3.5 20.7794 3.65804 21.0607 3.93934C21.342 4.22064 21.5 4.60218 21.5 5V7.086C21.4999 7.61639 21.2891 8.12501 20.914 8.5L15.5 13.914V21.338C15.5 21.5255 15.4521 21.7099 15.3608 21.8737C15.2695 22.0375 15.1379 22.1753 14.9783 22.2739C14.8188 22.3724 14.6368 22.4286 14.4494 22.4371C14.2621 22.4455 14.0757 22.4059 13.908 22.322L10.191 20.464C9.98337 20.3602 9.80875 20.2006 9.6867 20.0031C9.56466 19.8057 9.50001 19.5781 9.5 19.346V13.914L4.086 8.5C3.7109 8.12501 3.50011 7.61639 3.5 7.086V5ZM5.5 5.5V7.086L11.06 12.646C11.1994 12.7853 11.3101 12.9507 11.3856 13.1327C11.4611 13.3148 11.5 13.5099 11.5 13.707V18.882L13.5 19.882V13.707C13.5 13.309 13.658 12.927 13.94 12.647L19.5 7.085V5.5H5.5Z" fill="black"/>
  </g>
  <defs>
    <clipPath id="clip0_7149_27616">
      <rect width="24" height="24" fill="white" transform="translate(0.5 0.5)"/>
    </clipPath>
  </defs>
</svg>