<svg xmlns="http://www.w3.org/2000/svg" width="21" height="21" viewBox="0 0 21 21" fill="none">
  <path fill-rule="evenodd" clip-rule="evenodd" d="M18.6837 20.1277L14.1727 15.6167C10.6544 18.3897 5.58456 17.9402 2.60898 14.5914C-0.366486 11.2427 -0.216583 6.15508 2.95102 2.98737C6.11862 -0.180344 11.2063 -0.33046 14.555 2.64497C17.9039 5.62039 18.3536 10.6903 15.5808 14.2087L20.0916 18.7207C20.3841 18.9629 20.5142 19.3498 20.4275 19.7195C20.3408 20.0892 20.0521 20.3778 19.6825 20.4646C19.3127 20.5514 18.9258 20.4212 18.6837 20.1287V20.1277ZM2.46164 8.96972C2.46164 11.5701 4.01913 13.9186 6.4155 14.9308C8.81174 15.9429 11.5811 15.422 13.446 13.6084C13.4657 13.5857 13.4856 13.5637 13.5056 13.5427C13.5256 13.5217 13.5486 13.5017 13.5705 13.4837C15.6059 11.3923 15.9898 8.1974 14.5079 5.68327C13.026 3.16915 10.0448 1.95786 7.22922 2.7259C4.41367 3.49394 2.46054 6.05129 2.46042 8.96969L2.46164 8.96972Z" fill="black"/>
</svg>