<svg xmlns="http://www.w3.org/2000/svg" width="18" height="18" viewBox="0 0 18 18" fill="none">
  <g clip-path="url(#clip0_7163_27591)">
    <path d="M17.4203 9.09281C16.7955 7.47656 15.7107 6.07883 14.3002 5.07236C12.8896 4.06589 11.215 3.4948 9.48342 3.42969C7.75182 3.4948 6.07725 4.06589 4.66668 5.07236C3.25611 6.07883 2.17138 7.47656 1.54654 9.09281C1.50434 9.20953 1.50434 9.33734 1.54654 9.45406C2.17138 11.0703 3.25611 12.468 4.66668 13.4745C6.07725 14.481 7.75182 15.0521 9.48342 15.1172C11.215 15.0521 12.8896 14.481 14.3002 13.4745C15.7107 12.468 16.7955 11.0703 17.4203 9.45406C17.4625 9.33734 17.4625 9.20953 17.4203 9.09281ZM9.48342 14.0547C6.66779 14.0547 3.69279 11.9669 2.61435 9.27344C3.69279 6.58 6.66779 4.49219 9.48342 4.49219C12.299 4.49219 15.274 6.58 16.3525 9.27344C15.274 11.9669 12.299 14.0547 9.48342 14.0547Z" fill="black"/>
    <path d="M9.4834 6.08594C8.85297 6.08594 8.2367 6.27288 7.71252 6.62313C7.18834 6.97338 6.77979 7.47119 6.53853 8.05363C6.29728 8.63607 6.23416 9.27697 6.35715 9.89529C6.48014 10.5136 6.78372 11.0816 7.2295 11.5273C7.67528 11.9731 8.24323 12.2767 8.86155 12.3997C9.47986 12.5227 10.1208 12.4596 10.7032 12.2183C11.2856 11.9771 11.7835 11.5685 12.1337 11.0443C12.484 10.5201 12.6709 9.90387 12.6709 9.27344C12.6709 8.42806 12.3351 7.61731 11.7373 7.01953C11.1395 6.42176 10.3288 6.08594 9.4834 6.08594ZM9.4834 11.3984C9.06311 11.3984 8.65227 11.2738 8.30281 11.0403C7.95336 10.8068 7.68099 10.4749 7.52016 10.0866C7.35932 9.69835 7.31724 9.27108 7.39923 8.85887C7.48122 8.44666 7.68361 8.06802 7.9808 7.77084C8.27798 7.47365 8.65662 7.27126 9.06883 7.18927C9.48104 7.10728 9.90831 7.14936 10.2966 7.31019C10.6849 7.47103 11.0168 7.7434 11.2503 8.09285C11.4838 8.44231 11.6084 8.85315 11.6084 9.27344C11.6084 9.83702 11.3845 10.3775 10.986 10.776C10.5875 11.1746 10.047 11.3984 9.4834 11.3984Z" fill="black"/>
  </g>
  <defs>
    <clipPath id="clip0_7163_27591">
      <rect width="17" height="17" fill="white" transform="translate(0.983398 0.773438)"/>
    </clipPath>
  </defs>
</svg>